<?xml version="1.0" encoding="UTF-8" standalone="no"?><!DOCTYPE svg PUBLIC "-//W3C//DTD SVG 1.1//EN" "http://www.w3.org/Graphics/SVG/1.1/DTD/svg11.dtd"><svg width="100%" height="100%" viewBox="0 0 826 139" version="1.1" xmlns="http://www.w3.org/2000/svg" xmlns:xlink="http://www.w3.org/1999/xlink" xml:space="preserve" xmlns:serif="http://www.serif.com/" style="fill-rule:evenodd;clip-rule:evenodd;stroke-linejoin:round;stroke-miterlimit:1.41421;"><g><path d="M17.307,75.658c0.824,5.274 3.338,9.656 7.541,13.145c4.204,3.489 9.849,5.233 16.937,5.233c5.549,0 10.37,-0.865 14.464,-2.596c4.093,-1.731 7.623,-4.024 10.59,-6.882l8.736,12.033c-4.945,4.945 -10.178,8.324 -15.7,10.137c-5.522,1.813 -11.552,2.72 -18.09,2.72c-5.934,0 -11.456,-0.989 -16.566,-2.967c-5.11,-1.978 -9.533,-4.739 -13.269,-8.283c-3.736,-3.544 -6.662,-7.761 -8.777,-12.651c-2.115,-4.89 -3.173,-10.329 -3.173,-16.318c0,-5.824 0.975,-11.195 2.926,-16.112c1.95,-4.918 4.697,-9.176 8.241,-12.775c3.544,-3.598 7.789,-6.4 12.734,-8.406c4.944,-2.005 10.411,-3.008 16.4,-3.008c6.209,0 11.841,1.058 16.895,3.173c5.055,2.115 9.382,5.178 12.981,9.189c3.599,4.011 6.415,8.915 8.448,14.711c2.032,5.797 3.049,12.349 3.049,19.657l-64.367,0Zm45.082,-15c-0.879,-4.945 -3.434,-8.915 -7.665,-11.909c-4.231,-2.995 -9.038,-4.492 -14.423,-4.492c-5.384,0 -10.219,1.497 -14.505,4.492c-4.286,2.994 -6.868,6.964 -7.747,11.909l44.34,0Z" style="fill-rule:nonzero;"/><path d="M162.705,48.955c-2.033,-0.989 -4.107,-1.745 -6.223,-2.267c-2.115,-0.522 -4.546,-0.782 -7.293,-0.782c-3.791,0 -7.349,0.563 -10.673,1.689c-3.324,1.126 -6.195,2.816 -8.613,5.069c-2.417,2.252 -4.299,5.068 -5.645,8.447c-1.346,3.379 -2.019,7.376 -2.019,11.992l0,19.12l17.225,0l0,15.329l-51.675,0l0,-15.329l17.39,0l0,-46.07l-17.39,0l0,-15.412l34.45,0l0,19.285c2.802,-7.692 6.936,-13.131 12.403,-16.318c5.467,-3.187 11.964,-4.78 19.492,-4.78c2.362,0 4.835,0.247 7.417,0.742c2.582,0.494 5.11,1.373 7.582,2.637l-6.428,16.648Z" style="fill-rule:nonzero;"/><g><path d="M230.129,107.552l-51.592,0l0,-15.329l16.977,0l0,-46.07l-16.977,0l0,-15.412l34.037,0l0,61.482l17.555,0l0,15.329Z" style="fill-rule:nonzero;"/><rect x="192.201" y="0" width="20.769" height="20.769" style="fill:#fd461e;fill-rule:nonzero;"/></g><path d="M309.247,96.591c-4.945,4.945 -10.151,8.324 -15.618,10.137c-5.466,1.813 -11.387,2.72 -17.76,2.72c-6.429,0 -12.266,-0.962 -17.513,-2.885c-5.248,-1.923 -9.698,-4.629 -13.352,-8.118c-3.654,-3.488 -6.456,-7.705 -8.406,-12.65c-1.951,-4.945 -2.926,-10.467 -2.926,-16.566c0,-5.824 0.975,-11.222 2.926,-16.195c1.95,-4.972 4.588,-9.23 7.912,-12.774c3.324,-3.544 7.239,-6.318 11.744,-8.324c4.505,-2.005 9.285,-3.008 14.34,-3.008c5.275,0 9.863,1.099 13.764,3.297c3.901,2.197 6.73,5.411 8.488,9.642l0,-11.126l15.247,0l0,35.768l-15.247,0c0,-6.758 -1.854,-12.156 -5.563,-16.194c-3.708,-4.039 -8.53,-6.058 -14.464,-6.058c-2.362,0 -4.848,0.481 -7.458,1.442c-2.61,0.962 -5,2.459 -7.17,4.492c-2.171,2.033 -3.97,4.615 -5.399,7.747c-1.428,3.132 -2.142,6.896 -2.142,11.291c0,4.286 0.686,7.981 2.06,11.085c1.374,3.104 3.173,5.659 5.398,7.665c2.226,2.005 4.863,3.516 7.912,4.533c3.05,1.016 6.195,1.524 9.437,1.524c5.549,0 10.37,-0.865 14.464,-2.596c4.093,-1.731 7.623,-4.024 10.59,-6.882l8.736,12.033Z" style="fill-rule:nonzero;"/><rect x="323.711" y="107.552" width="76.811" height="15.329" style="fill:#fd461e;fill-rule:nonzero;"/><path d="M490.603,84.558c0,5 -1.127,9.066 -3.379,12.198c-2.253,3.132 -5.151,5.659 -8.695,7.582c-3.544,1.923 -7.5,3.256 -11.868,3.997c-4.368,0.742 -8.64,1.113 -12.816,1.113c-6.978,0 -13.928,-1.016 -20.851,-3.049c-6.923,-2.033 -12.912,-4.698 -17.966,-7.995l7.087,-14.01c6.044,3.516 11.58,6.002 16.607,7.458c5.027,1.456 10.069,2.184 15.123,2.184c6.868,0 11.868,-0.728 15,-2.184c3.132,-1.456 4.698,-3.475 4.698,-6.057c0,-1.264 -0.44,-2.308 -1.319,-3.132c-0.879,-0.824 -2.335,-1.58 -4.368,-2.267c-2.033,-0.686 -4.711,-1.373 -8.036,-2.06c-3.324,-0.687 -7.458,-1.415 -12.403,-2.184c-3.956,-0.659 -7.706,-1.47 -11.25,-2.431c-3.544,-0.962 -6.662,-2.322 -9.354,-4.08c-2.692,-1.758 -4.849,-3.983 -6.47,-6.675c-1.62,-2.693 -2.431,-6.072 -2.431,-10.138c0,-4.12 1.058,-7.705 3.173,-10.755c2.115,-3.049 4.89,-5.563 8.324,-7.541c3.434,-1.978 7.294,-3.406 11.58,-4.285c4.285,-0.88 8.571,-1.319 12.856,-1.319c6.044,0 11.909,0.783 17.596,2.349c5.687,1.566 10.673,3.805 14.959,6.717l-6.759,13.186c-4.285,-2.692 -8.447,-4.519 -12.486,-5.481c-4.038,-0.961 -8.475,-1.442 -13.31,-1.442c-2.033,0 -4.148,0.11 -6.346,0.33c-2.197,0.22 -4.23,0.645 -6.098,1.277c-1.869,0.632 -3.421,1.484 -4.657,2.555c-1.236,1.072 -1.854,2.377 -1.854,3.915c0,2.033 1.799,3.695 5.398,4.986c3.599,1.291 9.739,2.569 18.42,3.832c4.725,0.66 9.038,1.498 12.939,2.514c3.901,1.017 7.253,2.39 10.055,4.121c2.802,1.731 4.986,3.956 6.552,6.676c1.566,2.719 2.349,6.085 2.349,10.095Z" style="fill-rule:nonzero;"/><path d="M499.413,85.465c0,-4.505 1.209,-8.448 3.626,-11.827c2.418,-3.379 5.591,-6.195 9.519,-8.447c3.929,-2.253 8.434,-3.942 13.516,-5.069c5.083,-1.126 10.261,-1.689 15.536,-1.689c2.912,0 5.412,0.055 7.499,0.165c2.088,0.109 4.204,0.274 6.346,0.494l0,-3.049c0,-4.011 -1.552,-7.006 -4.656,-8.984c-3.104,-1.978 -7.184,-2.967 -12.239,-2.967c-4.615,0 -9.313,0.646 -14.093,1.937c-4.78,1.291 -9.313,3.173 -13.598,5.646l-6.923,-13.352c5.054,-2.912 10.48,-5.206 16.277,-6.881c5.796,-1.676 11.909,-2.514 18.337,-2.514c4.176,0 8.283,0.467 12.321,1.401c4.039,0.934 7.665,2.472 10.879,4.615c3.214,2.143 5.783,4.931 7.706,8.365c1.923,3.434 2.885,7.679 2.885,12.734l0,51.509l-16.896,0l0,-11.291c-2.692,4.176 -6.662,7.418 -11.909,9.726c-5.247,2.307 -10.892,3.461 -16.936,3.461c-3.736,0 -7.266,-0.508 -10.59,-1.525c-3.325,-1.016 -6.195,-2.541 -8.613,-4.574c-2.417,-2.033 -4.354,-4.546 -5.81,-7.541c-1.456,-2.994 -2.184,-6.442 -2.184,-10.343Zm31.565,8.736c3.352,0 6.497,-0.426 9.437,-1.277c2.939,-0.852 5.535,-2.033 7.788,-3.544c2.253,-1.511 4.024,-3.338 5.316,-5.481c1.291,-2.143 1.936,-4.505 1.936,-7.088l0,-2.884c-2.692,-0.44 -5.219,-0.687 -7.582,-0.742c-2.362,-0.055 -4.45,-0.082 -6.263,-0.082c-8.352,0 -14.657,1.099 -18.915,3.296c-4.258,2.198 -6.387,4.918 -6.387,8.159c0,6.429 4.89,9.643 14.67,9.643Z" style="fill-rule:nonzero;"/><path d="M583.171,30.741l17.061,0l0,47.471c0,5.934 1.126,10.055 3.379,12.363c2.252,2.307 5.521,3.461 9.807,3.461c6.264,0 11.401,-2.555 15.412,-7.664c4.011,-5.11 6.016,-12.17 6.016,-21.181l0,-34.45l17.06,0l0,76.811l-17.06,0l0,-19.202c-1.703,6.593 -4.862,11.758 -9.478,15.494c-4.615,3.736 -10.302,5.604 -17.06,5.604c-7.857,0 -14.01,-2.569 -18.461,-7.706c-4.45,-5.137 -6.676,-12.98 -6.676,-23.53l0,-47.471Z" style="fill-rule:nonzero;"/><path d="M663.312,30.741l17.06,0l0,6.923c3.242,-2.912 6.525,-5.096 9.849,-6.552c3.324,-1.456 7.129,-2.184 11.414,-2.184c4.945,0 9.533,1.003 13.764,3.008c4.231,2.006 7.857,4.78 10.879,8.324c3.022,3.544 5.412,7.802 7.17,12.774c1.758,4.973 2.637,10.371 2.637,16.195c0,5.879 -0.879,11.291 -2.637,16.236c-1.758,4.945 -4.148,9.189 -7.17,12.733c-3.022,3.544 -6.648,6.305 -10.879,8.283c-4.231,1.978 -8.819,2.967 -13.764,2.967c-4.285,0 -8.09,-0.769 -11.414,-2.308c-3.324,-1.538 -6.607,-3.763 -9.849,-6.675l0,37.828l-17.06,0l0,-107.552Zm17.06,56.207c2.033,2.253 4.629,3.998 7.788,5.234c3.16,1.236 6.195,1.854 9.107,1.854c6.429,0 11.662,-2.28 15.701,-6.84c4.038,-4.561 6.057,-10.549 6.057,-17.967c0,-7.417 -2.019,-13.434 -6.057,-18.049c-4.039,-4.615 -9.272,-6.923 -15.701,-6.923c-2.912,0 -5.947,0.591 -9.107,1.772c-3.159,1.181 -5.755,2.898 -7.788,5.151l0,35.768Z" style="fill-rule:nonzero;"/><path d="M761.073,75.658c0.825,5.274 3.338,9.656 7.541,13.145c4.204,3.489 9.849,5.233 16.937,5.233c5.549,0 10.371,-0.865 14.464,-2.596c4.093,-1.731 7.623,-4.024 10.59,-6.882l8.736,12.033c-4.945,4.945 -10.178,8.324 -15.7,10.137c-5.522,1.813 -11.552,2.72 -18.09,2.72c-5.934,0 -11.456,-0.989 -16.566,-2.967c-5.109,-1.978 -9.532,-4.739 -13.269,-8.283c-3.736,-3.544 -6.662,-7.761 -8.777,-12.651c-2.115,-4.89 -3.173,-10.329 -3.173,-16.318c0,-5.824 0.975,-11.195 2.926,-16.112c1.95,-4.918 4.698,-9.176 8.241,-12.775c3.544,-3.598 7.789,-6.4 12.734,-8.406c4.945,-2.005 10.412,-3.008 16.4,-3.008c6.209,0 11.841,1.058 16.896,3.173c5.054,2.115 9.381,5.178 12.98,9.189c3.599,4.011 6.415,8.915 8.448,14.711c2.033,5.797 3.049,12.349 3.049,19.657l-64.367,0Zm45.082,-15c-0.879,-4.945 -3.434,-8.915 -7.665,-11.909c-4.231,-2.995 -9.038,-4.492 -14.423,-4.492c-5.384,0 -10.219,1.497 -14.505,4.492c-4.285,2.994 -6.868,6.964 -7.747,11.909l44.34,0Z" style="fill-rule:nonzero;"/></g></svg>